<svg width="50" height="50" viewBox="0 0 50 50" fill="none" xmlns="http://www.w3.org/2000/svg">
<g clip-path="url(#clip0_351_1655)">
<path fill-rule="evenodd" clip-rule="evenodd" d="M16.8249 15.125L17.0228 15.2979L34.702 32.975C34.9337 33.2065 35.1076 33.4893 35.2095 33.8006C35.3114 34.1118 35.3385 34.4427 35.2886 34.7664C35.2386 35.0901 35.1131 35.3975 34.9221 35.6636C34.7312 35.9297 34.4802 36.147 34.1895 36.2979L33.9478 36.4021L12.3124 44.375C8.24572 45.875 4.28531 42.0521 5.52072 37.9917L5.62489 37.6875L13.5957 16.0521C13.7011 15.7655 13.8682 15.5056 14.0852 15.2907C14.3021 15.0758 14.5637 14.9113 14.8513 14.8087C15.1389 14.7062 15.4456 14.6681 15.7495 14.6972C16.0535 14.7263 16.3474 14.8218 16.6103 14.9771L16.8249 15.1229V15.125ZM16.3791 20.5458L9.53531 39.1292C9.47168 39.3021 9.45505 39.4887 9.4871 39.6702C9.51916 39.8516 9.59875 40.0213 9.71778 40.1619C9.8368 40.3025 9.99099 40.409 10.1646 40.4706C10.3382 40.5322 10.5251 40.5467 10.7061 40.5125L10.8728 40.4646L29.452 33.6187L16.3791 20.5458ZM35.6395 24.175C37.5374 24.275 40.1395 24.675 42.402 26.0333C42.8606 26.3053 43.1976 26.7427 43.3434 27.2556C43.4893 27.7685 43.4329 28.3177 43.1859 28.7903C42.939 29.2629 42.5202 29.6228 42.0159 29.7959C41.5115 29.969 40.96 29.9421 40.4749 29.7208L40.2582 29.6062C38.8374 28.7521 37.0207 28.4187 35.4207 28.3354C34.7615 28.2973 34.1005 28.3 33.4416 28.3437L32.7832 28.4083C32.2398 28.4785 31.6905 28.3316 31.2546 27.9997C30.8186 27.6677 30.5309 27.1774 30.4539 26.6349C30.3769 26.0923 30.5168 25.5413 30.8432 25.1011C31.1696 24.661 31.6563 24.3672 32.1978 24.2833C33.3388 24.1359 34.4914 24.099 35.6395 24.1729V24.175ZM39.8582 18.3708C40.389 18.3719 40.8994 18.5756 41.2851 18.9403C41.6709 19.305 41.9028 19.8032 41.9337 20.3331C41.9645 20.863 41.7919 21.3847 41.4511 21.7917C41.1103 22.1987 40.627 22.4602 40.0999 22.5229L39.8582 22.5375H38.3832C37.8524 22.5364 37.342 22.3327 36.9563 21.968C36.5706 21.6033 36.3386 21.1051 36.3078 20.5752C36.2769 20.0453 36.4495 19.5236 36.7903 19.1166C37.1311 18.7096 37.6144 18.4481 38.1416 18.3854L38.3832 18.3708H39.8582ZM33.2291 16.7708C33.5878 17.1296 33.8032 17.6069 33.8351 18.1132C33.8669 18.6195 33.7129 19.12 33.402 19.5208L33.2291 19.7167L31.0207 21.9271C30.6467 22.3047 30.1425 22.5251 29.6112 22.5431C29.08 22.5611 28.562 22.3754 28.1633 22.024C27.7645 21.6726 27.5151 21.1821 27.4661 20.6529C27.4172 20.1236 27.5723 19.5957 27.8999 19.1771L28.0728 18.9812L30.2811 16.7729C30.4746 16.5792 30.7044 16.4255 30.9573 16.3207C31.2102 16.2159 31.4813 16.1619 31.7551 16.1619C32.0289 16.1619 32.3 16.2159 32.5529 16.3207C32.8058 16.4255 33.0356 16.5771 33.2291 16.7708ZM27.8395 5.79999C28.7728 8.60416 28.2728 11.675 27.6895 13.8208C27.3389 15.1586 26.8574 16.4587 26.252 17.7021C26.0053 18.1966 25.5722 18.5729 25.0481 18.7481C24.524 18.9233 23.9517 18.8832 23.4572 18.6365C22.9627 18.3897 22.5864 17.9567 22.4112 17.4326C22.2359 16.9084 22.2761 16.3362 22.5228 15.8417C23.0059 14.8428 23.3897 13.7989 23.6686 12.725C24.1416 10.9917 24.3791 9.11041 24.0145 7.56874L23.8874 7.11874C23.7966 6.8582 23.7585 6.58222 23.7752 6.30681C23.7919 6.03141 23.8632 5.76208 23.9849 5.51445C24.1066 5.26682 24.2762 5.04582 24.484 4.86429C24.6918 4.68276 24.9335 4.5443 25.1953 4.45697C25.457 4.36964 25.7334 4.33516 26.0086 4.35555C26.2838 4.37593 26.5521 4.45077 26.7981 4.57571C27.0441 4.70066 27.2629 4.87322 27.4416 5.08339C27.6204 5.29355 27.7556 5.53713 27.8395 5.79999ZM39.1207 10.8792C39.5113 11.2698 39.7307 11.7997 39.7307 12.3521C39.7307 12.9045 39.5113 13.4343 39.1207 13.825L37.6478 15.2979C37.4556 15.4969 37.2257 15.6556 36.9716 15.7648C36.7174 15.874 36.444 15.9314 36.1674 15.9338C35.8908 15.9363 35.6164 15.8835 35.3604 15.7788C35.1044 15.674 34.8718 15.5193 34.6762 15.3237C34.4805 15.1281 34.3258 14.8955 34.2211 14.6395C34.1163 14.3834 34.0636 14.1091 34.066 13.8325C34.0684 13.5559 34.1259 13.2825 34.2351 13.0283C34.3443 12.7741 34.503 12.5443 34.702 12.3521L36.1749 10.8792C36.5656 10.4886 37.0954 10.2692 37.6478 10.2692C38.2002 10.2692 38.73 10.4886 39.1207 10.8792Z" fill="#1877F2"/>
</g>
<defs>
<clipPath id="clip0_351_1655">
<rect width="50" height="50" fill="white"/>
</clipPath>
</defs>
</svg>
