<svg width="24" height="24" viewBox="0 0 24 24" fill="none" xmlns="http://www.w3.org/2000/svg">
<path d="M9.6001 10.3936C9.6001 9.75707 9.85295 9.14662 10.303 8.69654C10.7531 8.24645 11.3636 7.99359 12.0001 7.99359C12.6366 7.99359 13.2471 8.24645 13.6972 8.69654C14.1472 9.14662 14.4001 9.75707 14.4001 10.3936C14.4001 11.0301 14.1472 11.6406 13.6972 12.0906C13.2471 12.5407 12.6366 12.7936 12.0001 12.7936C11.3636 12.7936 10.7531 12.5407 10.303 12.0906C9.85295 11.6406 9.6001 11.0301 9.6001 10.3936Z" fill="#1877F2"/>
<path fill-rule="evenodd" clip-rule="evenodd" d="M1.6001 10.3936C1.60137 7.63633 2.69769 4.99244 4.64798 3.04336C6.59827 1.09427 9.24283 -0.000424431 12.0001 1.23445e-07C17.7425 1.23445e-07 22.4001 4.6544 22.4001 10.3936C22.4001 14.672 20.2593 18.0624 17.9649 20.3536C16.9507 21.3723 15.814 22.2612 14.5809 23C14.0657 23.304 13.5841 23.544 13.1649 23.7072C12.7697 23.864 12.3553 23.9856 12.0001 23.9856C11.6449 23.9856 11.2305 23.864 10.8353 23.7072C10.3459 23.508 9.87251 23.2716 9.4193 23C8.18625 22.2611 7.04958 21.3722 6.0353 20.3536C3.7409 18.0624 1.6001 14.672 1.6001 10.3936ZM12.0001 6.3952C10.9392 6.3952 9.92182 6.81663 9.17167 7.56677C8.42153 8.31692 8.0001 9.33433 8.0001 10.3952C8.0001 11.4561 8.42153 12.4735 9.17167 13.2236C9.92182 13.9738 10.9392 14.3952 12.0001 14.3952C13.061 14.3952 14.0784 13.9738 14.8285 13.2236C15.5787 12.4735 16.0001 11.4561 16.0001 10.3952C16.0001 9.33433 15.5787 8.31692 14.8285 7.56677C14.0784 6.81663 13.061 6.3952 12.0001 6.3952Z" fill="#1877F2"/>
</svg>
