<svg width="50" height="50" viewBox="0 0 50 50" fill="none" xmlns="http://www.w3.org/2000/svg">
<path d="M38.9766 23.4375C38.1969 30.4594 32.2266 35.9375 25 35.9375C17.7734 35.9375 11.8031 30.4594 11.0234 23.4375" stroke="#1877F2" stroke-width="3.125" stroke-miterlimit="10" stroke-linecap="round" stroke-linejoin="round"/>
<path d="M25 35.9375V45.3125M18.75 45.3125H31.25M38.225 9.37344C38.7753 10.3234 39.0642 11.4022 39.0625 12.5C39.0625 13.6391 38.7578 14.7078 38.2266 15.6266M25 29.6875C22.928 29.6875 20.9409 28.8644 19.4757 27.3993C18.0106 25.9341 17.1875 23.947 17.1875 21.875V12.5C17.1875 10.428 18.0106 8.44086 19.4757 6.97573C20.9409 5.5106 22.928 4.6875 25 4.6875C27.072 4.6875 29.0591 5.5106 30.5243 6.97573C31.9894 8.44086 32.8125 10.428 32.8125 12.5V21.875C32.8125 23.947 31.9894 25.9341 30.5243 27.3993C29.0591 28.8644 27.072 29.6875 25 29.6875Z" stroke="#1877F2" stroke-width="3.125" stroke-miterlimit="10" stroke-linecap="round" stroke-linejoin="round"/>
<path d="M43.75 6.25C44.8312 8.11719 45.3125 10.1875 45.3125 12.5C45.3125 14.7312 44.7609 16.9281 43.75 18.75" stroke="#1877F2" stroke-width="3.175" stroke-miterlimit="10" stroke-linecap="round" stroke-linejoin="round"/>
<path d="M11.775 9.37344C11.2248 10.3234 10.9358 11.4022 10.9375 12.5C10.9375 13.6391 11.2422 14.7078 11.7734 15.6266" stroke="#1877F2" stroke-width="3.125" stroke-miterlimit="10" stroke-linecap="round" stroke-linejoin="round"/>
<path d="M6.25 6.25C5.16875 8.11719 4.6875 10.1875 4.6875 12.5C4.6875 14.7312 5.23906 16.9281 6.25 18.75" stroke="#1877F2" stroke-width="3.175" stroke-miterlimit="10" stroke-linecap="round" stroke-linejoin="round"/>
</svg>
