<svg width="50" height="50" viewBox="0 0 50 50" fill="none" xmlns="http://www.w3.org/2000/svg">
<g clip-path="url(#clip0_351_1626)">
<g clip-path="url(#clip1_351_1626)">
<path d="M43.7497 33.3333H35.4163C34.2657 33.3333 33.333 34.2661 33.333 35.4166V43.75C33.333 44.9006 34.2657 45.8333 35.4163 45.8333H43.7497C44.9003 45.8333 45.833 44.9006 45.833 43.75V35.4166C45.833 34.2661 44.9003 33.3333 43.7497 33.3333Z" stroke="#1877F2" stroke-width="4" stroke-linecap="round" stroke-linejoin="round"/>
<path d="M14.5832 33.3333H6.24984C5.09924 33.3333 4.1665 34.2661 4.1665 35.4166V43.75C4.1665 44.9006 5.09924 45.8333 6.24984 45.8333H14.5832C15.7338 45.8333 16.6665 44.9006 16.6665 43.75V35.4166C16.6665 34.2661 15.7338 33.3333 14.5832 33.3333Z" stroke="#1877F2" stroke-width="4" stroke-linecap="round" stroke-linejoin="round"/>
<path d="M29.1667 4.16666H20.8333C19.6827 4.16666 18.75 5.0994 18.75 6.24999V14.5833C18.75 15.7339 19.6827 16.6667 20.8333 16.6667H29.1667C30.3173 16.6667 31.25 15.7339 31.25 14.5833V6.24999C31.25 5.0994 30.3173 4.16666 29.1667 4.16666Z" stroke="#1877F2" stroke-width="4" stroke-linecap="round" stroke-linejoin="round"/>
<path d="M10.4165 33.3333V27.0833C10.4165 26.5308 10.636 26.0009 11.0267 25.6102C11.4174 25.2195 11.9473 25 12.4998 25H37.4998C38.0524 25 38.5823 25.2195 38.973 25.6102C39.3637 26.0009 39.5832 26.5308 39.5832 27.0833V33.3333M24.9998 25V16.6667" stroke="#1877F2" stroke-width="4" stroke-linecap="round" stroke-linejoin="round"/>
</g>
</g>
<defs>
<clipPath id="clip0_351_1626">
<rect width="50" height="50" fill="white"/>
</clipPath>
<clipPath id="clip1_351_1626">
<rect width="50" height="50" fill="white"/>
</clipPath>
</defs>
</svg>
