<svg width="50" height="50" viewBox="0 0 50 50" fill="none" xmlns="http://www.w3.org/2000/svg">
<g clip-path="url(#clip0_351_1616)">
<path d="M12.4998 16.6667C12.4998 15.5616 12.9388 14.5018 13.7202 13.7204C14.5016 12.939 15.5614 12.5 16.6665 12.5C17.7716 12.5 18.8314 12.939 19.6128 13.7204C20.3942 14.5018 20.8332 15.5616 20.8332 16.6667C20.8332 17.7717 20.3942 18.8316 19.6128 19.613C18.8314 20.3944 17.7716 20.8333 16.6665 20.8333C15.5614 20.8333 14.5016 20.3944 13.7202 19.613C12.9388 18.8316 12.4998 17.7717 12.4998 16.6667ZM16.6665 8.33334C14.4564 8.33334 12.3368 9.21132 10.7739 10.7741C9.21114 12.3369 8.33317 14.4565 8.33317 16.6667C8.33317 18.8768 9.21114 20.9964 10.7739 22.5592C12.3368 24.122 14.4564 25 16.6665 25C18.8766 25 20.9963 24.122 22.5591 22.5592C24.1219 20.9964 24.9998 18.8768 24.9998 16.6667C24.9998 14.4565 24.1219 12.3369 22.5591 10.7741C20.9963 9.21132 18.8766 8.33334 16.6665 8.33334ZM33.3332 18.75C33.3332 18.1975 33.5527 17.6676 33.9434 17.2769C34.3341 16.8862 34.864 16.6667 35.4165 16.6667C35.969 16.6667 36.4989 16.8862 36.8896 17.2769C37.2803 17.6676 37.4998 18.1975 37.4998 18.75C37.4998 19.3025 37.2803 19.8324 36.8896 20.2231C36.4989 20.6138 35.969 20.8333 35.4165 20.8333C34.864 20.8333 34.3341 20.6138 33.9434 20.2231C33.5527 19.8324 33.3332 19.3025 33.3332 18.75ZM35.4165 12.5C33.7589 12.5 32.1692 13.1585 30.9971 14.3306C29.825 15.5027 29.1665 17.0924 29.1665 18.75C29.1665 20.4076 29.825 21.9973 30.9971 23.1694C32.1692 24.3415 33.7589 25 35.4165 25C37.0741 25 38.6638 24.3415 39.8359 23.1694C41.008 21.9973 41.6665 20.4076 41.6665 18.75C41.6665 17.0924 41.008 15.5027 39.8359 14.3306C38.6638 13.1585 37.0741 12.5 35.4165 12.5ZM4.1665 34.375C4.1665 31.5 6.49984 29.1667 9.37484 29.1667H23.9582C26.8332 29.1667 29.1665 31.5 29.1665 34.375V34.575C29.1633 34.7269 29.1522 34.8785 29.1332 35.0292C29.0965 35.3943 29.0339 35.7563 28.9457 36.1125C28.6663 37.2655 28.1638 38.3527 27.4665 39.3125C25.6998 41.7417 22.4082 43.75 16.6665 43.75C10.9248 43.75 7.63317 41.7417 5.8665 39.3125C4.95293 38.0512 4.37901 36.5762 4.19984 35.0292C4.18309 34.8769 4.17197 34.724 4.1665 34.5708V34.375ZM8.33317 34.4833C8.35043 34.7024 8.38527 34.9198 8.43734 35.1333C8.54984 35.6042 8.779 36.2333 9.23734 36.8625C10.0707 38.0125 11.9873 39.5833 16.6665 39.5833C21.3415 39.5833 23.2582 38.0125 24.0957 36.8625C24.6 36.1638 24.9118 35.3447 24.9998 34.4875V34.375C24.9998 34.0987 24.8901 33.8338 24.6947 33.6384C24.4994 33.4431 24.2344 33.3333 23.9582 33.3333H9.37484C9.09857 33.3333 8.83362 33.4431 8.63827 33.6384C8.44292 33.8338 8.33317 34.0987 8.33317 34.375V34.4833ZM35.4123 41.6667C34.1047 41.6796 32.8 41.5398 31.5248 41.25C32.2866 40.0473 32.8271 38.7181 33.1207 37.325C33.7665 37.4333 34.5248 37.5 35.4123 37.5C39.1207 37.5 40.529 36.3667 41.079 35.6792C41.3848 35.2985 41.5858 34.8447 41.6623 34.3625V34.3417C41.6537 34.0712 41.5401 33.8148 41.3457 33.6266C41.1513 33.4384 40.8913 33.3332 40.6207 33.3333H33.2748C33.1106 31.8423 32.5888 30.413 31.754 29.1667H40.6248C43.4998 29.1667 45.8332 31.5 45.8332 34.375V34.4458C45.8296 34.5754 45.8198 34.7047 45.804 34.8333C45.6386 36.0942 45.1314 37.2859 44.3373 38.2792C42.7998 40.1958 40.0457 41.6667 35.4165 41.6667H35.4123Z" fill="#1877F2"/>
</g>
<defs>
<clipPath id="clip0_351_1616">
<rect width="50" height="50" fill="white"/>
</clipPath>
</defs>
</svg>
