<svg width="16" height="16" viewBox="0 0 16 16" fill="none" xmlns="http://www.w3.org/2000/svg">
<g clip-path="url(#clip0_570_751)">
<path d="M7.99978 7.55555C8.6151 7.55555 9.2166 7.37309 9.72822 7.03124C10.2398 6.68938 10.6386 6.20349 10.8741 5.63501C11.1095 5.06653 11.1712 4.44099 11.0511 3.83749C10.9311 3.234 10.6348 2.67965 10.1997 2.24455C9.76457 1.80946 9.21023 1.51315 8.60673 1.39311C8.00323 1.27307 7.37769 1.33468 6.80921 1.57015C6.24073 1.80562 5.75484 2.20438 5.41299 2.716C5.07114 3.22762 4.88867 3.82912 4.88867 4.44444C4.88867 5.26956 5.21645 6.06088 5.7999 6.64433C6.38334 7.22778 7.17466 7.55555 7.99978 7.55555ZM7.99978 2.22222C8.4393 2.22222 8.86894 2.35255 9.23438 2.59673C9.59983 2.84091 9.88465 3.18798 10.0528 3.59403C10.221 4.00009 10.2651 4.44691 10.1793 4.87797C10.0936 5.30904 9.88191 5.70501 9.57113 6.01579C9.26035 6.32657 8.86439 6.53822 8.43332 6.62396C8.00225 6.70971 7.55543 6.6657 7.14938 6.49751C6.74332 6.32931 6.39625 6.04448 6.15207 5.67904C5.90789 5.3136 5.77756 4.88396 5.77756 4.44444C5.77756 3.85507 6.01169 3.28984 6.42843 2.87309C6.84518 2.45634 7.41041 2.22222 7.99978 2.22222Z" fill="#6B6B6B"/>
<path d="M13.5427 10.8311C12.8299 10.0778 11.971 9.47773 11.0185 9.06764C10.0659 8.65755 9.03973 8.44604 8.00266 8.44604C6.96558 8.44604 5.93941 8.65755 4.98686 9.06764C4.03431 9.47773 3.17541 10.0778 2.46266 10.8311C2.30813 10.9962 2.22231 11.2139 2.22266 11.44V13.7778C2.22266 14.0135 2.31631 14.2396 2.48301 14.4063C2.64971 14.573 2.8758 14.6667 3.11155 14.6667H12.8893C13.1251 14.6667 13.3512 14.573 13.5179 14.4063C13.6846 14.2396 13.7782 14.0135 13.7782 13.7778V11.44C13.7798 11.2145 13.6956 10.9968 13.5427 10.8311ZM12.8893 13.7778H3.11155V11.4355C3.74143 10.7723 4.49967 10.2441 5.34015 9.88323C6.18062 9.52232 7.08575 9.33621 8.00043 9.33621C8.91512 9.33621 9.82024 9.52232 10.6607 9.88323C11.5012 10.2441 12.2594 10.7723 12.8893 11.4355V13.7778Z" fill="#6B6B6B"/>
</g>
<defs>
<clipPath id="clip0_570_751">
<rect width="16" height="16" fill="white"/>
</clipPath>
</defs>
</svg>
